<svg width="347" height="180" xmlns="http://www.w3.org/2000/svg">

 <g>
  <title>background</title>
  <rect fill="none" id="canvas_background" height="182" width="349" y="-1" x="-1"/>
 </g>
 <g>
  <title>Layer 1</title>
  <g stroke="null" id="svg_1">
   <path stroke="null" id="svg_2" d="m130.530806,60.728721c-2.725357,-2.726271 -6.016555,-4.785558 -9.578376,-6.106539l0.444656,-0.51596c4.415603,-5.109925 6.708135,-11.630367 6.456658,-18.353094c-0.238731,-6.739131 -3.001448,-13.077328 -7.774242,-17.848294c-5.03293,-5.032948 -11.957029,-7.840302 -19.046055,-7.753286c-7.013859,-4.641122 -16.55579,-4.085302 -22.930433,1.427834l-16.399522,14.187158c-8.987921,7.752352 -17.478356,16.242788 -25.228899,25.228899l-14.201733,16.412268c-5.581006,6.45802 -6.130462,15.778538 -1.431473,22.898093c-0.064231,7.120003 2.728996,14.043188 7.760563,19.074755c0.90663,0.90663 1.883425,1.709597 2.888007,2.461564c-4.397389,6.33775 -4.52449,14.748446 -0.196818,21.298036c-0.061507,7.116364 2.731273,14.035444 7.761926,19.064287c5.155496,5.155477 11.98573,7.763306 18.830557,7.763306c6.190607,0 12.392131,-2.134006 17.369021,-6.445741l16.412268,-14.178033c0.001829,0 0.001829,0 0.001829,0c9.252181,-8.002038 17.99956,-16.749417 26.001598,-26.003408l14.178033,-16.410458c4.413793,-5.108097 6.706324,-11.626728 6.456658,-18.353094c-0.238731,-6.739131 -3.001448,-13.077328 -7.774223,-17.848294zm-99.288237,46.013027c-3.269327,-3.267499 -5.450714,-7.462602 -6.298113,-11.958391c0.035531,0.027786 0.074719,0.050348 0.110716,0.07791c0.020956,0.016179 0.044189,0.029839 0.065146,0.046018c0.568584,0.433497 1.165403,0.827357 1.780453,1.194552c0.156734,0.093641 0.316175,0.180415 0.475634,0.269727c0.518927,0.289974 1.0506,0.554906 1.595951,0.796361c0.158992,0.07039 0.314364,0.144885 0.475634,0.211169c0.699343,0.28725 1.410964,0.547628 2.144475,0.751967c0.630539,0.174481 1.243313,0.293856 1.847894,0.388617c0.119356,0.01868 0.238265,0.034616 0.356259,0.050348c0.571775,0.074943 1.134426,0.122995 1.681139,0.125272c0.019146,0.000243 0.039188,0.004329 0.058316,0.004329c0.005468,0 0.010488,-0.001138 0.015955,-0.001138c0.503886,-0.000896 0.995923,-0.036893 1.477939,-0.099762c0.112993,-0.014817 0.222328,-0.039879 0.33394,-0.058092c0.358106,-0.057868 0.710726,-0.131206 1.056068,-0.224381c0.144437,-0.038946 0.287026,-0.082239 0.429167,-0.126877c0.320747,-0.10161 0.634645,-0.220051 0.943541,-0.352414c0.127567,-0.054434 0.256496,-0.104091 0.381787,-0.16377c0.421423,-0.200924 0.834635,-0.422804 1.233292,-0.682939c2.587769,-1.698904 3.838807,-4.029729 4.539064,-6.352324c0.460145,-1.523957 0.689769,-3.044741 0.882482,-4.383263c0.197733,-1.324414 0.457868,-3.074804 0.903887,-3.877324c0.063336,-0.112526 0.129844,-0.207063 0.200476,-0.277677c0.273347,-0.273366 0.516632,-0.495228 0.750343,-0.697756c0.43693,-0.376543 0.830101,-0.658549 1.225548,-0.878601c0.602753,-0.333044 1.233758,-0.552405 2.117136,-0.858335c2.31625,-0.829186 5.817012,-2.082968 9.848103,-6.115888c0.000914,-0.000672 0.001362,-0.001362 0.001829,-0.00181c0.000896,-0.000914 0.001362,-0.001138 0.00181,-0.001829c0.179967,-0.179949 0.325748,-0.35262 0.49478,-0.53031c0.305239,-0.320971 0.621433,-0.644199 0.893418,-0.957649c0.135759,-0.156734 0.243284,-0.306154 0.371299,-0.460835c0.268813,-0.325057 0.544885,-0.651962 0.780891,-0.96767c2.095266,-2.802595 2.955877,-5.224056 3.595542,-7.02457c0.365384,-1.046495 0.607306,-1.737626 1.113003,-2.484797c0.302981,-0.446709 0.700257,-0.913926 1.276119,-1.489788c1.541722,-1.541722 2.305296,-1.807792 4.062069,-2.421928c2.31806,-0.823719 5.820651,-2.068394 9.868127,-6.117698c0.000914,-0.00069 0.000914,-0.001362 0.001829,-0.001829c0.000467,-0.000914 0.001362,-0.001138 0.001829,-0.00181c4.038369,-4.038388 5.283044,-7.540978 6.135911,-9.941035c0.365384,-1.046495 0.607306,-1.737645 1.113021,-2.484816c0.302963,-0.446709 0.700238,-0.913908 1.276119,-1.489788c1.549019,-1.549 2.305296,-1.809602 3.98735,-2.39095l0.313431,-0.112974c0.971328,-0.348085 2.073861,-0.743532 3.338597,-1.381368c1.397752,-0.703429 2.64015,-1.648557 3.683473,-2.773185c1.739455,-1.873852 2.924452,-4.246589 3.347237,-6.834339c0.014126,-0.08543 0.014574,-0.17017 0.026872,-0.255601c0.054677,-0.377458 0.097504,-0.754001 0.119375,-1.129406c0.010935,-0.191351 0.008192,-0.380873 0.010935,-0.571775c0.003639,-0.276538 0.003639,-0.552181 -0.010021,-0.826443c-0.010488,-0.206839 -0.027805,-0.411626 -0.047847,-0.616879c-0.02551,-0.257168 -0.060126,-0.512303 -0.101143,-0.766298c-0.032806,-0.205011 -0.065146,-0.409573 -0.107973,-0.612326c-0.055125,-0.260826 -0.125738,-0.517098 -0.197266,-0.773595c-0.051486,-0.185883 -0.095227,-0.374043 -0.15582,-0.55763c-0.133931,-0.406401 -0.287474,-0.806401 -0.462421,-1.198209c-0.082911,-0.185435 -0.18314,-0.363107 -0.275176,-0.544661c-0.114803,-0.226657 -0.228262,-0.453091 -0.356725,-0.673142c-0.114355,-0.196128 -0.240112,-0.385892 -0.365384,-0.576777c-0.075185,-0.113907 -0.139883,-0.232592 -0.218689,-0.344427c4.526767,0.829168 8.756486,3.017832 12.049513,6.312688c4.103981,4.102153 6.4767,9.551038 6.684454,15.34435c0.21505,5.780567 -1.756772,11.384358 -5.554581,15.77809l-1.558125,1.807792c-0.115269,-0.023009 -0.232349,-0.028701 -0.347619,-0.050105c-0.590903,-0.112078 -1.187274,-0.186573 -1.785007,-0.257877c-0.270623,-0.031201 -0.539884,-0.075167 -0.811421,-0.098176c-0.589541,-0.05171 -1.181358,-0.068561 -1.774986,-0.079963c-0.275643,-0.007054 -0.547628,-0.036669 -0.824633,-0.036893c-0.141227,-0.093399 -0.289751,-0.170842 -0.432806,-0.260154c-0.218689,-0.135759 -0.43736,-0.270623 -0.660602,-0.396809c-0.232816,-0.131206 -0.468804,-0.253305 -0.705725,-0.374043c-0.232349,-0.118237 -0.463784,-0.236007 -0.69979,-0.34398c-0.238731,-0.109111 -0.480187,-0.208202 -0.722109,-0.307068c-0.24056,-0.097952 -0.480653,-0.196594 -0.724852,-0.284507c-0.244647,-0.088174 -0.492037,-0.165841 -0.739874,-0.243751c-0.24739,-0.07791 -0.493865,-0.156492 -0.74398,-0.224157c-0.250581,-0.067646 -0.503439,-0.124152 -0.756296,-0.181554c-0.250114,-0.056935 -0.499781,-0.115717 -0.751724,-0.162183c-0.257859,-0.047847 -0.516651,-0.083378 -0.775872,-0.120737c-0.251047,-0.035997 -0.500695,-0.074495 -0.752639,-0.100677c-0.263345,-0.027338 -0.526672,-0.041465 -0.790912,-0.058092c-0.249219,-0.015713 -0.497504,-0.034859 -0.747171,-0.040998c-0.269261,-0.006606 -0.538055,0.001138 -0.807763,0.005692c-0.244199,0.004105 -0.48795,0.003639 -0.732149,0.017075c-0.274262,0.014817 -0.547161,0.04488 -0.820975,0.071528c-0.237817,0.023233 -0.4761,0.040774 -0.71345,0.072666c-0.277919,0.037359 -0.553096,0.090674 -0.829634,0.139865c-0.230091,0.041241 -0.461059,0.0761 -0.689769,0.125757c-0.28111,0.060593 -0.558115,0.138036 -0.836483,0.211617c-0.220051,0.058092 -0.441465,0.108663 -0.65924,0.174724c-0.283368,0.085654 -0.561288,0.188608 -0.841017,0.287474c-0.207754,0.073357 -0.417784,0.13895 -0.623243,0.219604c-0.284302,0.111612 -0.561307,0.241922 -0.84057,0.367661c-0.194094,0.087464 -0.391827,0.165841 -0.583159,0.260135c-0.286112,0.140779 -0.563583,0.300705 -0.843313,0.456506c-0.17631,0.098419 -0.357173,0.187021 -0.530758,0.291355c-0.303429,0.182001 -0.595456,0.384754 -0.889312,0.585211c-0.140779,0.095899 -0.287026,0.181778 -0.425529,0.281782c-0.427357,0.309121 -0.843761,0.637369 -1.247418,0.986126l-16.399522,14.187158c-8.987921,7.752371 -17.478356,16.242788 -25.228899,25.228899l-13.102838,15.142531c-0.901162,-0.666984 -1.764517,-1.409602 -2.576833,-2.223747zm97.781131,-12.251799l-14.178052,16.410458c-7.881748,9.117317 -16.501561,17.73713 -25.617068,25.618897l-16.415907,14.179862c-9.011639,7.805219 -22.679404,7.305886 -31.118801,-1.133511c-3.269346,-3.267517 -5.450714,-7.462621 -6.298113,-11.95841c0.021871,0.01687 0.045552,0.03053 0.067422,0.04738c0.100229,0.07791 0.209116,0.143522 0.310707,0.219156c0.48976,0.363555 0.995475,0.703429 1.518956,1.018242c0.2032,0.122547 0.410488,0.23554 0.618241,0.350343c0.461059,0.255134 0.932587,0.489312 1.415069,0.706172c0.208202,0.093399 0.412316,0.190903 0.624157,0.277005c0.682939,0.278367 1.378177,0.53031 2.093456,0.729406c0.613222,0.17017 1.209592,0.288388 1.798219,0.382459c0.1508,0.024147 0.300238,0.044432 0.449209,0.06356c0.527119,0.067889 1.04558,0.11025 1.551295,0.115717c0.046018,0.000467 0.095227,0.010488 0.141227,0.010488c0.013212,0 0.025528,-0.002743 0.03874,-0.002743c0.48976,-0.001362 0.968118,-0.036445 1.437388,-0.097038c0.135759,-0.017299 0.266984,-0.04738 0.401381,-0.069699c0.333492,-0.055591 0.662879,-0.123238 0.985902,-0.209583c0.158992,-0.042361 0.316622,-0.089965 0.472909,-0.139865c0.302496,-0.096571 0.598647,-0.208649 0.890675,-0.332802c0.142141,-0.060369 0.285664,-0.115493 0.425529,-0.182468c0.390894,-0.186797 0.773595,-0.395689 1.144894,-0.633954c0.024147,-0.015489 0.050124,-0.02551 0.074271,-0.041241c0,-0.00181 0.00181,-0.003639 0.003639,-0.003639c4.2771,-2.808268 4.931339,-7.351438 5.417908,-10.72648c0.225967,-1.514384 0.533949,-3.590055 1.108001,-4.164107c1.556315,-1.556315 2.314421,-1.818727 4.087578,-2.432863c2.316232,-0.829186 5.817012,-2.081158 9.853552,-6.117698c4.038388,-4.036559 5.283063,-7.53915 6.13593,-9.939207c0.584987,-1.674776 0.851038,-2.43835 2.392779,-3.980072s2.305296,-1.807792 4.058411,-2.421928c2.31806,-0.82189 5.82248,-2.066565 9.871784,-6.117698c4.042027,-4.042008 5.284873,-7.544617 6.13593,-9.941035c0.584969,-1.672928 0.851038,-2.436502 2.392761,-3.978224c1.549019,-1.549019 2.305315,-1.809621 3.987368,-2.39095l0.313431,-0.112993c0.971328,-0.348066 2.073861,-0.743532 3.338597,-1.381349c3.724919,-1.875233 6.350962,-5.465307 7.027052,-9.602076c0.078824,-0.476324 0.123928,-0.951286 0.150352,-1.424419c0.007744,-0.14328 0.005001,-0.284749 0.008192,-0.427563c0.007296,-0.33213 0.005934,-0.662431 -0.012298,-0.99137c-0.008659,-0.16265 -0.022785,-0.323938 -0.037807,-0.485673c-0.029167,-0.313898 -0.070614,-0.624605 -0.122566,-0.933968c-0.025958,-0.154439 -0.050105,-0.30843 -0.081549,-0.461507c-0.071528,-0.34579 -0.161269,-0.686354 -0.26105,-1.024176c-0.031444,-0.105248 -0.054677,-0.212307 -0.088845,-0.316641c-0.143056,-0.440103 -0.308878,-0.872461 -0.500229,-1.295247c-0.037359,-0.082911 -0.083844,-0.161959 -0.123014,-0.244199c-0.160821,-0.335769 -0.333492,-0.665622 -0.523928,-0.988179c-0.078377,-0.13212 -0.164012,-0.260135 -0.246942,-0.389979c-0.099762,-0.15582 -0.18997,-0.316193 -0.297047,-0.468356c0.029167,0.005244 0.057401,0.012764 0.086569,0.018232c4.493513,0.841241 8.690426,3.019661 11.962049,6.293094c4.103963,4.102153 6.4767,9.551038 6.684454,15.344369c0.213203,5.782377 -1.758601,11.386168 -5.552771,15.778071z"/>
   <path stroke="null" id="svg_3" d="m114.880284,96.58751l-1.282949,1.483406c-0.672452,0.779977 -0.588626,1.95904 0.191351,2.633321c0.353534,0.304344 0.787255,0.453781 1.220994,0.453781c0.523014,0 1.042389,-0.218689 1.412326,-0.645132l1.282949,-1.483406c0.672452,-0.779977 0.588626,-1.95904 -0.191351,-2.633321c-0.779977,-0.670642 -1.95723,-0.588626 -2.633321,0.191351z"/>
   <path stroke="null" id="svg_4" d="m123.494628,69.428721c-0.856506,0.574033 -1.084302,1.733073 -0.512079,2.589579c1.395923,2.081158 2.179539,4.510364 2.268851,7.025242c0.127567,3.426062 -1.040579,6.744598 -3.287559,9.343303c-0.674281,0.779977 -0.588626,1.95904 0.191351,2.633321c0.353534,0.304344 0.787255,0.453763 1.220976,0.453763c0.523033,0 1.042408,-0.21867 1.412345,-0.645113c2.866584,-3.316708 4.355458,-7.551895 4.191446,-11.920117c-0.112974,-3.207373 -1.115279,-6.309049 -2.895733,-8.967898c-0.575881,-0.858335 -1.734902,-1.084302 -2.589598,-0.512079z"/>
  </g>
  <text stroke="#000" transform="matrix(2.0692124366760254,0,0,2.0692124366760254,-176.9546582698822,-72.12172014266253) " xml:space="preserve" text-anchor="start" font-family="'Courier New', Courier, monospace" font-size="24" id="svg_5" y="84.553471" x="165.983276" stroke-width="0" fill="#000000">EKLER</text>
 </g>
</svg>